<svg class="animated" id="freepik_stories-martin-luther-king-day" xmlns="http://www.w3.org/2000/svg" viewBox="0 0 500 500" version="1.1" xmlns:xlink="http://www.w3.org/1999/xlink" xmlns:svgjs="http://svgjs.com/svgjs"><style>svg#freepik_stories-martin-luther-king-day:not(.animated) .animable {opacity: 0;}svg#freepik_stories-martin-luther-king-day.animated #freepik--background-complete--inject-54 {animation: 1.5s Infinite  linear floating;animation-delay: 0s;}            @keyframes floating {                0% {                    opacity: 1;                    transform: translateY(0px);                }                50% {                    transform: translateY(-10px);                }                100% {                    opacity: 1;                    transform: translateY(0px);                }            }        </style><g id="freepik--background-complete--inject-54" class="animable" style="transform-origin: 248.305px 154.503px;"><path d="M459.72,261.78c-139,55.47-278-30.53-417,21.87Q39.9,161.4,37.11,38.84c139-46.95,278,48.23,417,5.69Q456.93,153.37,459.72,261.78Z" style="fill: rgb(235, 235, 235); transform-origin: 248.415px 154.561px;" id="elsy0vm3kfxa" class="animable"></path><path d="M454.42,61.82c-139,43.44-278-51-417-3.52l-.45-19.51C176-8.28,315,86.9,454,44.48Z" style="fill: rgb(250, 250, 250); transform-origin: 245.695px 49.4711px;" id="elp79v7gsg0td" class="animable"></path><path d="M455.28,95.19c-139,45.42-278-47.62-417,.7Q38,86.13,37.8,76.38c139-47.9,278,45.88,417,1.48Z" style="fill: rgb(250, 250, 250); transform-origin: 246.54px 85.2149px;" id="el23vqt0smq8i" class="animable"></path><path d="M456.13,128.54c-139,47.41-278-44.24-417,4.92q-.23-9.75-.44-19.51c139-48.72,278,43.65,417-2.72Q455.92,119.89,456.13,128.54Z" style="fill: rgb(250, 250, 250); transform-origin: 247.41px 120.96px;" id="elr0dpusi2vm" class="animable"></path><path d="M457,161.87C318,211.26,179,121,40,171q-.21-9.75-.44-19.5c139-49.55,278,41.42,417-6.94Z" style="fill: rgb(250, 250, 250); transform-origin: 248.28px 156.699px;" id="elcbi1ebtgl9" class="animable"></path><path d="M457.84,195.18c-139,51.38-278-37.45-417,13.37q-.23-9.74-.44-19.49c139-50.39,278,39.17,417-11.17Q457.63,186.55,457.84,195.18Z" style="fill: rgb(250, 250, 250); transform-origin: 249.12px 192.452px;" id="elfu7rvqdbq0f" class="animable"></path><path d="M458.7,228.47c-139,53.36-278-34.05-417,17.61l-.45-19.48c139-51.23,278,36.92,417-15.41Z" style="fill: rgb(250, 250, 250); transform-origin: 249.975px 228.199px;" id="el6culivi2pe7" class="animable"></path><path d="M459.55,261.74c-139,55.35-278-30.65-417,21.86q-.23-9.74-.44-19.48c139-52.07,278,34.67,417-19.65Q459.34,253.11,459.55,261.74Z" style="fill: rgb(250, 250, 250); transform-origin: 250.83px 264.035px;" id="elmvuz9ck6xwi" class="animable"></path><path d="M206.24,157.75c-55.45-7-110.9-9.36-166.35,10.56q-1.47-64.73-3-129.52C92.39,20,147.84,23.87,203.29,32.6Q204.78,95.23,206.24,157.75Z" style="fill: rgb(235, 235, 235); transform-origin: 121.565px 96.8332px;" id="elrlncpc18o6" class="animable"></path><path d="M66.1,49.34l2.1,4.08c1.5-.06,3-.11,4.49-.15q-1.57,2-3.15,4.11l.87,4.78c-1.35-.52-2.7-1-4-1.51-1.31,1.06-2.63,2.13-3.94,3.21.22-1.7.43-3.41.65-5.11-1.1-.92-2.21-1.84-3.31-2.74,1.48-.6,3-1.18,4.45-1.75Z" style="fill: rgb(255, 255, 255); transform-origin: 66.25px 56.6px;" id="elcnmuntui5hm" class="animable"></path><path d="M93.32,45.11l2.1,4.27c1.5.09,3,.19,4.48.31-1.05,1.24-2.1,2.5-3.15,3.75.29,1.62.59,3.23.88,4.84q-2-1-4-1.92c-1.31.91-2.63,1.83-3.94,2.77.21-1.67.43-3.34.65-5-1.11-1-2.21-2.07-3.32-3.09,1.49-.43,3-.84,4.46-1.25Z" style="fill: rgb(255, 255, 255); transform-origin: 93.46px 52.12px;" id="elj095m3k6f19" class="animable"></path><path d="M120.54,43.55l2.1,4.41,4.48.7L124,52.12c.29,1.62.58,3.25.88,4.87l-4-2.26c-1.32.79-2.63,1.59-4,2.4.22-1.64.44-3.27.65-4.91l-3.31-3.36,4.45-.84Z" style="fill: rgb(255, 255, 255); transform-origin: 120.67px 50.34px;" id="elbkjb6az9utt" class="animable"></path><path d="M147.76,44.18l2.1,4.54c1.49.32,3,.66,4.48,1l-3.15,3.22.87,4.89-4-2.53-4,2.09c.22-1.6.44-3.21.65-4.82-1.1-1.2-2.21-2.39-3.31-3.58,1.48-.18,3-.34,4.45-.5C146.49,47.05,147.13,45.62,147.76,44.18Z" style="fill: rgb(255, 255, 255); transform-origin: 147.87px 51.005px;" id="el2kuromg2cq4" class="animable"></path><path d="M175,46.55l2.1,4.62,4.49,1.23-3.16,3c.3,1.63.59,3.27.88,4.91q-2-1.38-4.05-2.73c-1.31.61-2.63,1.22-3.94,1.85.22-1.59.43-3.17.65-4.75L168.63,51c1.48-.09,3-.17,4.45-.24Z" style="fill: rgb(255, 255, 255); transform-origin: 175.11px 53.43px;" id="el08tq5h68v31p" class="animable"></path><path d="M66.7,75.55l2.1,4.07c1.5-.07,3-.13,4.49-.17-1.05,1.36-2.1,2.74-3.15,4.12L71,88.34c-1.35-.51-2.7-1-4.05-1.49C65.65,87.91,64.33,89,63,90.08c.22-1.7.43-3.41.65-5.11-1.1-.92-2.21-1.83-3.31-2.73q2.22-.9,4.45-1.76Z" style="fill: rgb(255, 255, 255); transform-origin: 66.815px 82.815px;" id="elkq3b310g52p" class="animable"></path><path d="M93.92,71.19,96,75.44c1.49.09,3,.18,4.48.29L97.35,79.5c.29,1.61.59,3.22.88,4.83l-4-1.9q-2,1.38-3.94,2.79c.21-1.67.43-3.34.65-5l-3.32-3.07c1.49-.44,3-.86,4.46-1.27Z" style="fill: rgb(255, 255, 255); transform-origin: 94.05px 78.205px;" id="elvzrogmjail" class="animable"></path><path d="M121.14,69.48l2.1,4.41c1.49.21,3,.44,4.48.67q-1.57,1.72-3.15,3.48l.87,4.86c-1.34-.75-2.69-1.5-4-2.23-1.32.79-2.63,1.6-4,2.41.22-1.63.44-3.27.65-4.91q-1.65-1.68-3.31-3.34c1.49-.3,3-.58,4.45-.86C119.87,72.47,120.51,71,121.14,69.48Z" style="fill: rgb(255, 255, 255); transform-origin: 121.25px 76.28px;" id="elin5a0wgk6lg" class="animable"></path><path d="M148.36,70q1,2.25,2.09,4.52l4.49,1-3.15,3.23.87,4.89-4-2.5c-1.31.69-2.62,1.4-3.94,2.11.22-1.61.44-3.22.65-4.82-1.1-1.2-2.21-2.39-3.31-3.57,1.48-.19,3-.36,4.45-.52Q147.41,72.12,148.36,70Z" style="fill: rgb(255, 255, 255); transform-origin: 148.5px 76.82px;" id="elzwnyg0fylx" class="animable"></path><path d="M175.57,72.18l2.1,4.6L182.16,78,179,81c.3,1.64.59,3.27.88,4.9l-4-2.7-3.94,1.87c.22-1.58.43-3.16.65-4.75l-3.31-3.73,4.45-.26Z" style="fill: rgb(255, 255, 255); transform-origin: 175.72px 79.04px;" id="elnre3vh21gvb" class="animable"></path><path d="M67.3,101.75l2.1,4c1.5-.08,3-.14,4.49-.19l-3.16,4.14c.3,1.59.59,3.18.88,4.77q-2-.75-4-1.47c-1.31,1.07-2.63,2.15-3.94,3.24.21-1.7.43-3.41.65-5.11L61,108.46c1.48-.6,3-1.2,4.45-1.78Z" style="fill: rgb(255, 255, 255); transform-origin: 67.445px 108.995px;" id="elxptd340fpa" class="animable"></path><path d="M94.52,97.25l2.1,4.25c1.49.07,3,.16,4.48.26L98,105.55c.29,1.61.59,3.22.88,4.82-1.35-.63-2.7-1.26-4-1.87-1.32.92-2.63,1.86-3.94,2.8.21-1.67.43-3.34.65-5-1.11-1-2.21-2-3.32-3,1.49-.45,3-.88,4.45-1.3C93.26,100.38,93.89,98.82,94.52,97.25Z" style="fill: rgb(255, 255, 255); transform-origin: 94.685px 104.275px;" id="elzz6k5d705t" class="animable"></path><path d="M121.74,95.41l2.1,4.39,4.48.65-3.15,3.49c.29,1.62.58,3.24.88,4.86l-4-2.21c-1.32.8-2.63,1.62-4,2.44.22-1.64.44-3.28.65-4.92q-1.65-1.67-3.31-3.32c1.49-.31,3-.6,4.45-.89C120.47,98.4,121.11,96.9,121.74,95.41Z" style="fill: rgb(255, 255, 255); transform-origin: 121.855px 102.22px;" id="elxs7q5f646ba" class="animable"></path><path d="M149,95.74l2.1,4.51,4.48,1c-1,1.07-2.1,2.16-3.15,3.25l.87,4.88-4-2.48L145.27,109c.22-1.61.43-3.22.65-4.82-1.1-1.19-2.21-2.37-3.31-3.55l4.45-.55C147.69,98.63,148.32,97.18,149,95.74Z" style="fill: rgb(255, 255, 255); transform-origin: 149.095px 102.56px;" id="elpchlk2o5awe" class="animable"></path><path d="M176.17,97.79l2.1,4.59,4.49,1.18-3.16,3.06c.3,1.64.59,3.27.88,4.9l-4-2.68-3.94,1.9c.22-1.59.43-3.17.65-4.76l-3.31-3.71,4.45-.29Z" style="fill: rgb(255, 255, 255); transform-origin: 176.32px 104.655px;" id="elfesi6qwrl5" class="animable"></path><path d="M67.9,127.94l2.1,4c1.5-.08,3-.15,4.49-.21-1,1.38-2.11,2.76-3.16,4.15.3,1.59.59,3.18.88,4.77-1.35-.5-2.7-1-4-1.46q-2,1.62-3.94,3.27c.21-1.71.43-3.41.65-5.12l-3.31-2.7q2.22-.92,4.45-1.8Z" style="fill: rgb(255, 255, 255); transform-origin: 68.05px 135.2px;" id="elorsl1jsuhq" class="animable"></path><path d="M95.12,123.32l2.1,4.23c1.49.07,3,.15,4.48.24l-3.15,3.8c.29,1.61.59,3.22.88,4.82q-2-.94-4.05-1.86l-3.95,2.83c.22-1.67.44-3.34.65-5q-1.65-1.53-3.31-3L93.22,128Q94.18,125.67,95.12,123.32Z" style="fill: rgb(255, 255, 255); transform-origin: 95.235px 130.35px;" id="el3ugt5mrhef3" class="animable"></path><path d="M122.34,121.33l2.1,4.38,4.48.62-3.15,3.51.87,4.86c-1.35-.74-2.69-1.47-4-2.19-1.32.81-2.63,1.63-3.95,2.46.22-1.64.44-3.28.65-4.92q-1.65-1.67-3.31-3.31c1.48-.31,3-.61,4.45-.9C121.07,124.33,121.71,122.83,122.34,121.33Z" style="fill: rgb(255, 255, 255); transform-origin: 122.475px 128.15px;" id="el3uwjdkuasjs" class="animable"></path><path d="M149.56,121.52c.7,1.49,1.39,3,2.09,4.49,1.5.3,3,.61,4.49.93L153,130.2l.87,4.89-4.05-2.46-3.94,2.15c.22-1.61.43-3.22.65-4.83l-3.31-3.53c1.48-.2,3-.39,4.45-.57Q148.6,123.68,149.56,121.52Z" style="fill: rgb(255, 255, 255); transform-origin: 149.68px 128.305px;" id="eljgaw5ruol3" class="animable"></path><path d="M176.77,123.4l2.1,4.58,4.49,1.15-3.16,3.08c.3,1.63.59,3.26.88,4.89L177,134.45c-1.31.63-2.63,1.27-3.94,1.92.22-1.59.43-3.17.65-4.76l-3.32-3.69,4.46-.32Z" style="fill: rgb(255, 255, 255); transform-origin: 176.875px 130.25px;" id="el2o4z8bhe4s5" class="animable"></path><path d="M52.18,39l2.1,4c1.5-.15,3-.28,4.49-.4l-3.15,4.3.87,4.75-4.05-1.29c-1.31,1.13-2.63,2.28-3.94,3.45.21-1.72.43-3.45.65-5.17L45.84,46c1.48-.69,3-1.35,4.45-2C50.92,42.31,51.55,40.62,52.18,39Z" style="fill: rgb(255, 255, 255); transform-origin: 52.305px 46.405px;" id="ely36kho69ir" class="animable"></path><path d="M79.4,33.27l2.1,4.18c1.5,0,3,0,4.48.1l-3.15,3.92c.29,1.6.59,3.21.88,4.81q-2-.89-4-1.74c-1.32,1-2.63,2-3.94,3,.21-1.69.43-3.37.65-5.05-1.11-1-2.21-2-3.32-2.93,1.49-.51,3-1,4.46-1.48Z" style="fill: rgb(255, 255, 255); transform-origin: 79.54px 40.405px;" id="elqxox3mtrms" class="animable"></path><path d="M106.62,30.5l2.1,4.35c1.49.16,3,.34,4.48.53L110.05,39c.29,1.62.58,3.24.88,4.86q-2-1.08-4.05-2.11c-1.32.84-2.63,1.7-3.95,2.56.22-1.65.44-3.3.65-5l-3.31-3.24,4.45-1C105.35,33.54,106,32,106.62,30.5Z" style="fill: rgb(255, 255, 255); transform-origin: 106.735px 37.405px;" id="elnhl9t2tyhro" class="animable"></path><path d="M133.84,30.17l2.1,4.48,4.48.88-3.15,3.32.87,4.89-4-2.42-3.94,2.23c.22-1.62.44-3.24.65-4.86l-3.31-3.5,4.45-.64C132.57,33.09,133.2,31.62,133.84,30.17Z" style="fill: rgb(255, 255, 255); transform-origin: 133.98px 36.955px;" id="el7d9wzuicykd" class="animable"></path><path d="M161.05,31.81q1,2.3,2.11,4.59l4.48,1.14-3.16,3.1c.3,1.64.59,3.27.88,4.91l-4.05-2.65c-1.31.64-2.63,1.29-3.94,2,.22-1.6.43-3.19.65-4.78l-3.31-3.69c1.48-.12,3-.24,4.45-.34Z" style="fill: rgb(255, 255, 255); transform-origin: 161.175px 38.68px;" id="elfhmuiaq91w" class="animable"></path><path d="M188.27,35l2.1,4.65,4.49,1.33-3.16,3c.29,1.63.59,3.27.88,4.9L188.53,46c-1.32.57-2.63,1.16-3.94,1.74.22-1.57.43-3.14.65-4.71l-3.32-3.83,4.46-.12Z" style="fill: rgb(255, 255, 255); transform-origin: 188.39px 41.94px;" id="elunqovc09sns" class="animable"></path><path d="M52.79,65.48l2.1,4c1.49-.15,3-.29,4.48-.42l-3.15,4.32c.29,1.58.58,3.16.88,4.74-1.35-.44-2.7-.86-4.05-1.27-1.32,1.14-2.63,2.3-3.95,3.46.22-1.72.44-3.44.65-5.16-1.1-.86-2.2-1.71-3.31-2.55q2.23-1,4.45-2C51.52,68.84,52.16,67.16,52.79,65.48Z" style="fill: rgb(255, 255, 255); transform-origin: 52.905px 72.895px;" id="elfkg2zp92mra" class="animable"></path><path d="M80,59.67l2.1,4.17c1.49,0,3,0,4.48.09q-1.57,2-3.15,3.93l.87,4.8-4-1.71c-1.32,1-2.63,2-4,3,.22-1.69.43-3.37.65-5L73.66,66c1.48-.51,3-1,4.45-1.49Q79.05,62.07,80,59.67Z" style="fill: rgb(255, 255, 255); transform-origin: 80.12px 66.81px;" id="elqzfdyzma5in" class="animable"></path><path d="M107.22,56.77l2.1,4.34c1.5.15,3,.32,4.49.5l-3.16,3.61c.3,1.62.59,3.24.88,4.85l-4-2.09-3.94,2.59c.22-1.65.43-3.3.65-5l-3.31-3.22c1.48-.36,3-.7,4.45-1Z" style="fill: rgb(255, 255, 255); transform-origin: 107.37px 63.67px;" id="elplu0r1wpyo" class="animable"></path><path d="M134.44,56.29l2.1,4.48c1.5.27,3,.55,4.49.84q-1.59,1.66-3.16,3.34c.29,1.63.59,3.26.88,4.89q-2-1.22-4.05-2.4c-1.31.74-2.63,1.49-3.94,2.25.21-1.62.43-3.24.65-4.86l-3.32-3.48,4.46-.67Z" style="fill: rgb(255, 255, 255); transform-origin: 134.56px 63.065px;" id="el6z54cg7d356" class="animable"></path><path d="M161.66,57.78l2.1,4.57,4.48,1.12q-1.58,1.55-3.15,3.12c.29,1.63.59,3.27.88,4.9l-4.05-2.63c-1.32.65-2.63,1.31-3.94,2,.21-1.6.43-3.19.65-4.79l-3.32-3.67,4.45-.37Z" style="fill: rgb(255, 255, 255); transform-origin: 161.775px 64.635px;" id="elq6a47gf759k" class="animable"></path><path d="M188.88,60.76,191,65.4l4.48,1.3-3.15,3,.87,4.91-4.05-2.8-3.94,1.77c.22-1.57.44-3.14.65-4.71L182.53,65l4.45-.14Q187.93,62.81,188.88,60.76Z" style="fill: rgb(255, 255, 255); transform-origin: 189.005px 67.685px;" id="el0o2c36l2nnc" class="animable"></path><path d="M53.39,92l2.1,4c1.5-.16,3-.31,4.49-.44-1,1.43-2.1,2.88-3.15,4.33l.87,4.73c-1.35-.43-2.7-.84-4.05-1.25-1.31,1.15-2.63,2.31-3.94,3.48.22-1.72.43-3.44.65-5.17l-3.31-2.53c1.48-.7,3-1.38,4.45-2Z" style="fill: rgb(255, 255, 255); transform-origin: 53.515px 99.425px;" id="elcwfjuozch5o" class="animable"></path><path d="M80.61,86.07l2.1,4.16c1.5,0,3,0,4.49.06q-1.59,2-3.16,3.95c.3,1.6.59,3.2.88,4.8l-4-1.7c-1.31,1-2.63,2-3.94,3,.21-1.69.43-3.38.65-5.06l-3.31-2.9c1.48-.52,3-1,4.45-1.52Z" style="fill: rgb(255, 255, 255); transform-origin: 80.76px 93.205px;" id="elf99ai7t2hrg" class="animable"></path><path d="M107.83,83l2.1,4.33c1.49.15,3,.31,4.48.48l-3.15,3.62c.29,1.62.58,3.23.88,4.85q-2-1.05-4-2.07c-1.32.86-2.63,1.73-4,2.61.22-1.65.44-3.31.65-5q-1.65-1.61-3.31-3.2c1.49-.37,3-.72,4.45-1.07Q106.89,85.33,107.83,83Z" style="fill: rgb(255, 255, 255); transform-origin: 107.945px 89.91px;" id="elyjmjlfyb4bm" class="animable"></path><path d="M135.05,82.41l2.1,4.46,4.48.82-3.15,3.36.87,4.88-4-2.37-3.95,2.26c.22-1.62.44-3.24.65-4.86-1.1-1.16-2.21-2.31-3.31-3.46,1.48-.24,3-.47,4.45-.69C133.78,85.34,134.42,83.87,135.05,82.41Z" style="fill: rgb(255, 255, 255); transform-origin: 135.185px 89.17px;" id="el3e2mqlvm6oz" class="animable"></path><path d="M162.27,83.74l2.1,4.56,4.48,1.08-3.16,3.15c.3,1.63.59,3.26.88,4.89l-4-2.6-3.94,2c.22-1.59.44-3.19.65-4.78l-3.31-3.65c1.48-.14,3-.27,4.45-.39Q161.32,85.86,162.27,83.74Z" style="fill: rgb(255, 255, 255); transform-origin: 162.41px 90.58px;" id="el3wev1cs8i8g" class="animable"></path><path d="M189.48,86.55l2.1,4.62,4.49,1.28-3.16,3c.3,1.63.59,3.27.88,4.9l-4-2.77c-1.31.6-2.63,1.19-3.94,1.8.22-1.58.43-3.15.65-4.72l-3.32-3.79,4.46-.17Z" style="fill: rgb(255, 255, 255); transform-origin: 189.625px 93.45px;" id="ele8eagr2t5wl" class="animable"></path><path d="M54,118.52l2.1,3.94c1.49-.16,3-.31,4.48-.45-1,1.44-2.1,2.88-3.15,4.34.29,1.57.59,3.15.88,4.73-1.35-.42-2.7-.84-4.05-1.24l-3.95,3.5.66-5.17-3.32-2.51q2.24-1.06,4.45-2.07Q53.06,121.06,54,118.52Z" style="fill: rgb(255, 255, 255); transform-origin: 54.115px 125.93px;" id="elo5y5sn9eud" class="animable"></path><path d="M81.22,112.47l2.1,4.14c1.49,0,3,0,4.48,0l-3.15,4c.29,1.6.58,3.2.88,4.8q-2-.85-4-1.68c-1.32,1-2.63,2-4,3,.22-1.68.44-3.37.65-5.06l-3.31-2.88c1.48-.52,3-1,4.45-1.54C80,115.67,80.59,114.07,81.22,112.47Z" style="fill: rgb(255, 255, 255); transform-origin: 81.335px 119.6px;" id="elo5vdlf80sdm" class="animable"></path><path d="M108.43,109.29l2.1,4.31c1.5.14,3,.3,4.49.46l-3.15,3.64.87,4.84q-2-1-4-2c-1.31.86-2.63,1.74-3.94,2.62.22-1.65.43-3.31.65-5L102.09,115c1.48-.38,3-.74,4.45-1.1Z" style="fill: rgb(255, 255, 255); transform-origin: 108.555px 116.225px;" id="elg7w96qwkesk" class="animable"></path><path d="M135.65,108.51l2.1,4.46c1.5.25,3,.52,4.49.79q-1.59,1.68-3.16,3.38c.3,1.62.59,3.24.88,4.87l-4.05-2.35L132,122c.22-1.62.43-3.25.65-4.87l-3.31-3.43c1.48-.25,3-.49,4.45-.72Z" style="fill: rgb(255, 255, 255); transform-origin: 135.79px 115.26px;" id="elcf1ydev9ny" class="animable"></path><path d="M162.87,109.69l2.1,4.55c1.5.34,3,.7,4.49,1.06q-1.59,1.58-3.16,3.16c.29,1.63.59,3.26.88,4.89l-4.05-2.58c-1.32.66-2.63,1.34-3.94,2,.21-1.6.43-3.2.65-4.79l-3.32-3.63L161,114Q161.93,111.82,162.87,109.69Z" style="fill: rgb(255, 255, 255); transform-origin: 162.99px 116.52px;" id="el99j37pmp16q" class="animable"></path><path d="M190.09,112.33l2.1,4.61,4.48,1.25-3.15,3c.29,1.63.58,3.26.88,4.89l-4.05-2.74-3.95,1.82c.22-1.57.44-3.15.65-4.72-1.1-1.26-2.21-2.51-3.31-3.76,1.48-.08,3-.14,4.45-.21Z" style="fill: rgb(255, 255, 255); transform-origin: 190.205px 119.205px;" id="elro9p8xv56wn" class="animable"></path><path d="M54.6,145c.7,1.31,1.41,2.62,2.11,3.94,1.49-.18,3-.34,4.48-.48L58,152.84l.87,4.73c-1.35-.42-2.7-.82-4-1.22-1.31,1.16-2.63,2.33-3.94,3.52.22-1.73.43-3.45.65-5.17l-3.31-2.51c1.48-.71,3-1.4,4.45-2.08Z" style="fill: rgb(255, 255, 255); transform-origin: 54.73px 152.435px;" id="el2uccwt9pa9" class="animable"></path><path d="M81.82,138.85l2.1,4.14c1.5,0,3,0,4.49,0l-3.16,4c.3,1.6.59,3.19.88,4.79q-2-.84-4-1.65c-1.31,1-2.63,2-3.94,3,.21-1.68.43-3.37.65-5.06l-3.31-2.86q2.22-.81,4.45-1.56Z" style="fill: rgb(255, 255, 255); transform-origin: 81.97px 145.99px;" id="elf1mqv3oq738" class="animable"></path><path d="M109,135.53l2.1,4.31c1.49.13,3,.28,4.48.43-1.05,1.22-2.1,2.43-3.15,3.66.29,1.61.59,3.22.88,4.83l-4-2c-1.32.87-2.63,1.75-4,2.65.22-1.66.44-3.31.65-5-1.1-1.07-2.2-2.12-3.31-3.17,1.49-.39,3-.76,4.45-1.12C107.78,138.6,108.41,137.07,109,135.53Z" style="fill: rgb(255, 255, 255); transform-origin: 109.115px 142.47px;" id="ella8g0c29uj" class="animable"></path><path d="M136.26,134.62q1.05,2.2,2.1,4.44c1.49.24,3,.5,4.48.77q-1.58,1.68-3.15,3.39l.87,4.86-4-2.32c-1.32.76-2.63,1.53-4,2.31.22-1.62.44-3.25.65-4.87l-3.31-3.42,4.45-.74C135,137.56,135.63,136.09,136.26,134.62Z" style="fill: rgb(255, 255, 255); transform-origin: 136.37px 141.35px;" id="elq07tcklvb3m" class="animable"></path><path d="M163.48,135.63l2.1,4.54c1.49.33,3,.68,4.48,1l-3.15,3.18.87,4.88-4.05-2.55-3.94,2c.22-1.6.44-3.2.65-4.79-1.1-1.21-2.21-2.41-3.31-3.61,1.48-.16,3-.31,4.45-.45C162.21,138.48,162.84,137.05,163.48,135.63Z" style="fill: rgb(255, 255, 255); transform-origin: 163.595px 142.43px;" id="elbuk5et2ee26" class="animable"></path><path d="M190.69,138.11l2.1,4.6c1.5.4,3,.8,4.49,1.22l-3.16,3c.3,1.63.59,3.26.88,4.89L191,149.12,187,151c.22-1.58.43-3.15.65-4.73l-3.31-3.74,4.45-.23Z" style="fill: rgb(255, 255, 255); transform-origin: 190.81px 144.965px;" id="elv674dx7mep8" class="animable"></path></g><g id="freepik--Character--inject-54" class="animable" style="transform-origin: 269.602px 229.437px;"><path d="M222,200.14l-.15-21a3,3,0,0,0-2.17-1.28c-1.3,0-7.13.7-7.21-9.88s6-8.91,6-8.91L217,147.89s-3.41-37.57,35.92-37,38.89,29.53,39.14,33.63-1.13,22-1.13,22,3.22-1.76,4.11.61-4.61,20.13-6.55,19.93a6.25,6.25,0,0,1-3.48-1.92l-2.54,6.5L280,210.94s-5.88-6.65-11.29-7.91S222,200.14,222,200.14Z" style="fill: rgb(38, 50, 56); transform-origin: 253.803px 160.912px;" id="eldst0za7v2ut" class="animable"></path><path d="M222,200.14l-.42,11.24,58.57,10.56-.16-11S275.89,194.17,222,200.14Z" style="fill: rgb(255, 255, 255); transform-origin: 250.865px 210.398px;" id="elf1sbb6rcj39" class="animable"></path><path d="M422.35,161.76l-30.69,6.71L396,227a24.58,24.58,0,0,0-5.32.84c-3.18.82,0,4.79,0,4.79L362.74,235l-38.14-10.1-28.19,4.2-16.48-9.39s-4.89-3.8-16.05-6-42.27-2.27-42.27-2.27l-19.54,13-19.29,9.06s-7.44,2.07-19.65,6.15-14.81,13.69-14.81,13.69-5.09,9.22-6.68,12.74-34.74,120.28-35,124.07h43.88s9.14-25.4,14.29-40.3c2.85,17,6.79,40.3,6.79,40.3H324.78l14.26-85,15.9-8.63s64.5-25.77,70-32.73,5-5.9,7.33-17.09S422.35,161.76,422.35,161.76Z" style="fill: rgb(38, 50, 56); transform-origin: 269.602px 275.955px;" id="elpn77f12mekc" class="animable"></path><g id="elpxok2h5excm"><g style="opacity: 0.1; transform-origin: 249.73px 290.495px;" class="animable"><path d="M250,369.25l7.78-55,.17,0,12.29-99a62.91,62.91,0,0,0-6.35-1.6c-7.66-1.52-24.73-2-34.67-2.19L236,314.3l.31-.05,7.89,55.28a24.35,24.35,0,0,1,4-.34C248.85,369.19,249.42,369.21,250,369.25Z" style="fill: rgb(255, 255, 255); transform-origin: 249.73px 290.495px;" id="el7z5vli4fp8" class="animable"></path></g></g><g id="elegog9rned"><g style="opacity: 0.1; transform-origin: 315.71px 299.875px;" class="animable"><path d="M375.17,233.91l-12.43,1-30.95-8.2L278.86,320.4l.17.07-22.78,50.07a24,24,0,0,1,5.11,2.5Z" style="fill: rgb(255, 255, 255); transform-origin: 315.71px 299.875px;" id="eljfv7dpwgog" class="animable"></path></g></g><g id="elxowur1y3y2b"><g style="opacity: 0.1; transform-origin: 300.49px 358.85px;" class="animable"><path d="M328.78,366.26l5.39-32.12-67.36,43.7a24.11,24.11,0,0,1,3.57,5.72Z" style="fill: rgb(255, 255, 255); transform-origin: 300.49px 358.85px;" id="elbqjah4ae9wf" class="animable"></path></g></g><g id="elsts28m7tbu"><g style="opacity: 0.1; transform-origin: 172.835px 348.97px;" class="animable"><path d="M159.57,364.83c1.88-5.3,3.74-10.6,5.26-15l2.92,17.39,5.69,1.67h0l52.43,15.35a23.85,23.85,0,0,1,3-5.37L127.7,313.7c-3.64,12.79-7.5,26.43-10.9,38.61Z" style="fill: rgb(255, 255, 255); transform-origin: 172.835px 348.97px;" id="eluaau6ihl4a8" class="animable"></path></g></g><g id="el2v8fpnwql8b"><g style="opacity: 0.1; transform-origin: 190.015px 305.495px;" class="animable"><path d="M215.11,320.51h0L172.6,236.55c-2.7.85-5.87,1.88-9.47,3.08-12.22,4.08-14.81,13.69-14.81,13.69s-4.87,8.83-6.57,12.51l55,66.52h0l36.47,42.09a24.18,24.18,0,0,1,5.06-3.1Z" style="fill: rgb(255, 255, 255); transform-origin: 190.015px 305.495px;" id="el8rn36h44i3a" class="animable"></path></g></g><path d="M224.3,390.13h47.94a24.23,24.23,0,0,0-16-19.59,24.44,24.44,0,0,0-6.26-1.29c-.57,0-1.14-.06-1.72-.06a24,24,0,0,0-15,5.24,24.07,24.07,0,0,0-7.37,9.81A23.69,23.69,0,0,0,224.3,390.13Z" style="fill: rgb(38, 50, 56); transform-origin: 248.27px 379.66px;" id="elgpy1r4xk9z" class="animable"></path><g id="elk5fqy5l0l5o"><g style="opacity: 0.3; transform-origin: 248.27px 379.66px;" class="animable"><path d="M224.3,390.13h47.94a24.23,24.23,0,0,0-16-19.59,24.44,24.44,0,0,0-6.26-1.29c-.57,0-1.14-.06-1.72-.06a24,24,0,0,0-15,5.24,24.07,24.07,0,0,0-7.37,9.81A23.69,23.69,0,0,0,224.3,390.13Z" style="fill: rgb(255, 255, 255); transform-origin: 248.27px 379.66px;" id="ellgc5f8y68ql" class="animable"></path></g></g><path d="M169.61,373c-.14,0-3.58-15.85-7.67-35.45s-7.3-35.54-7.16-35.57,3.57,15.85,7.67,35.46S169.75,373,169.61,373Z" style="fill: rgb(69, 90, 100); transform-origin: 162.195px 337.49px;" id="ele1265gikqrv" class="animable"></path><path d="M396.43,248.44a77.25,77.25,0,0,1-3-8.26,74.32,74.32,0,0,1-2.51-8.41,74.06,74.06,0,0,1,3,8.25A73.45,73.45,0,0,1,396.43,248.44Z" style="fill: rgb(69, 90, 100); transform-origin: 393.675px 240.105px;" id="elgkdkup98nw" class="animable"></path><path d="M408.42,251.74c-.09,0-.3-1.62-.91-4.21A48.2,48.2,0,0,0,398.67,229c-1.63-2.09-2.77-3.28-2.7-3.34a4.9,4.9,0,0,1,.86.77,30.79,30.79,0,0,1,2.12,2.34,42.66,42.66,0,0,1,8.92,18.68c.26,1.31.42,2.38.49,3.12A5.63,5.63,0,0,1,408.42,251.74Z" style="fill: rgb(69, 90, 100); transform-origin: 402.197px 238.7px;" id="elb3vldr04aga" class="animable"></path><path d="M346.69,274.07c.13,0-1.67,7.93-4,17.62s-4.39,17.53-4.53,17.5,1.66-7.92,4-17.62S346.55,274,346.69,274.07Z" style="fill: rgb(69, 90, 100); transform-origin: 342.424px 291.63px;" id="el7j6i7cco54k" class="animable"></path><polygon points="392.53 168.28 390.01 153.01 419.15 149.14 421.16 162 392.53 168.28" style="fill: rgb(255, 255, 255); transform-origin: 405.585px 158.71px;" id="elj45ghkhdwbc" class="animable"></polygon><path d="M363.12,109.22s10.47,16.63,11.55,18.74,6.13,5,9.6,7.89,5.31,1.28,5.87,4.19,3.06,13,3.06,13l21.21-3.21-1.27-19-1.89-27.73L409,89.87l-6.27-11.44-2.29,1.08-2-6.88-3.19-1.22-1.43-2.64s-3-.68-3.69,3.21.93,21.74.93,21.74l1.07,9.54-2.31-1.58-4.61-25.95s-4.61-1.55-4.74,5,1.9,17.84,1.9,17.84,1.46,5.82,1.13,8.83-1,8.61-1.87,10-3.7,1.21-3.7,1.21-6.95-9-8.47-10.18C364.74,104.77,363.12,109.22,363.12,109.22Z" style="fill: rgb(38, 50, 56); transform-origin: 388.765px 110.882px;" id="elzqaauzh35i8" class="animable"></path><path d="M400.7,100.37a4.59,4.59,0,0,1-.36-1.1c-.21-.72-.47-1.76-.79-3-.63-2.58-1.43-6.16-2.2-10.15s-1.36-7.61-1.74-10.24c-.18-1.31-.32-2.38-.4-3.12a4.54,4.54,0,0,1-.07-1.15,5.11,5.11,0,0,1,.27,1.12q.22,1.26.57,3.09c.47,2.62,1.11,6.23,1.88,10.2s1.51,7.57,2.05,10.17c.25,1.22.45,2.25.62,3.08A5.56,5.56,0,0,1,400.7,100.37Z" style="fill: rgb(69, 90, 100); transform-origin: 397.915px 85.99px;" id="el540bfzj6pov" class="animable"></path><path d="M405.41,98.88A98.75,98.75,0,0,1,402.74,89a102.29,102.29,0,0,1-2.16-10c.14,0,1.33,4.41,2.67,9.92A102.47,102.47,0,0,1,405.41,98.88Z" style="fill: rgb(69, 90, 100); transform-origin: 402.995px 88.94px;" id="elonam7pozw7" class="animable"></path></g><g id="freepik--Plants--inject-54" class="animable" style="transform-origin: 237.848px 362.992px;"><path d="M402.66,336.26a11.12,11.12,0,0,1,3.25,8.06,19.58,19.58,0,0,1-2.21,8.57c-2.52,5.18-7.51,9.55-12.33,12.7-3.15-5.57-1.75-12.86-.81-16.52,1.48-5.77,7.68-15.3,12.1-12.81" style="fill: rgb(59, 59, 59); transform-origin: 397.668px 350.722px;" id="el9rdlb1hdd55" class="animable"></path><path d="M393.51,376.36a9.47,9.47,0,0,1,5.88-7.47,12.57,12.57,0,0,1,9.7.35,5.33,5.33,0,0,1,3.23,3.08,4,4,0,0,1-1.31,3.89,8.22,8.22,0,0,1-3.85,1.81c-4.81,1.08-9.67,1.25-13.65-1.66" style="fill: rgb(59, 59, 59); transform-origin: 402.961px 373.412px;" id="el3ouudyyl5at" class="animable"></path><path d="M383.73,387a17.46,17.46,0,0,1,1.86-3.33,17.69,17.69,0,0,1,2.67-3.19,37.11,37.11,0,0,1,3.81-3.35,19,19,0,0,1,8.45-3.65,14.14,14.14,0,0,1,2.81-.09c.66.07,1,.14,1,.19s-1.46-.06-3.74.36a20.29,20.29,0,0,0-8.15,3.71,45.15,45.15,0,0,0-3.78,3.26,19.4,19.4,0,0,0-2.71,3A28.61,28.61,0,0,1,383.73,387Z" style="fill: rgb(38, 50, 56); transform-origin: 394.03px 380.179px;" id="elvm6q2i5mpop" class="animable"></path><path d="M398.58,343.94a10.17,10.17,0,0,1-.45,1.87c-.34,1.2-.85,2.91-1.49,5-1.29,4.24-3.14,10.07-5.34,16.46s-4.36,12.13-6,16.24c-.82,2.06-1.51,3.71-2,4.85a12.67,12.67,0,0,1-.83,1.74,10.83,10.83,0,0,1,.59-1.83c.47-1.27,1.08-2.93,1.82-4.92,1.53-4.15,3.62-9.9,5.82-16.29s4.07-12.08,5.51-16.39c.69-2,1.25-3.68,1.69-5A11.1,11.1,0,0,1,398.58,343.94Z" style="fill: rgb(38, 50, 56); transform-origin: 390.525px 367.02px;" id="elkn08jzkjmzk" class="animable"></path><path d="M385.92,376a22.13,22.13,0,0,0-8.6-18.3c-1.43-1.08-3.39-2-4.92-1.08s-1.68,3.08-1.38,4.84a18.91,18.91,0,0,0,14.69,15" style="fill: rgb(59, 59, 59); transform-origin: 378.414px 366.351px;" id="elu8gcr4juzdf" class="animable"></path><path d="M377.41,362.94s.31.19.79.63,1.15,1.11,1.94,2a25,25,0,0,1,4.93,7.65,15.52,15.52,0,0,1,1,5,15.09,15.09,0,0,1-.46,4.1,15.28,15.28,0,0,1-.92,2.61c-.28.59-.45.91-.49.89s.48-1.36,1-3.6a15.34,15.34,0,0,0-.69-8.73,28.24,28.24,0,0,0-4.68-7.58A34.16,34.16,0,0,1,377.41,362.94Z" style="fill: rgb(38, 50, 56); transform-origin: 381.742px 374.38px;" id="elokrvoluu55c" class="animable"></path><path d="M67.21,341a10.86,10.86,0,0,1,8.07,2.65,19.1,19.1,0,0,1,5,7.07c2.29,5.15,2.4,11.63,1.71,17.23-6.15-1.17-10.72-6.81-12.86-9.82-3.37-4.76-6.59-15.4-1.93-17.13" style="fill: rgb(59, 59, 59); transform-origin: 73.6162px 354.456px;" id="elnvrii5pv3lo" class="animable"></path><path d="M91.4,373.18a9.27,9.27,0,0,1-1.87-9.11,12.3,12.3,0,0,1,6.39-7,5.18,5.18,0,0,1,4.34-.47,4,4,0,0,1,2.08,3.43,8.12,8.12,0,0,1-1.08,4c-2.23,4.28-5.17,8-9.86,9.15" style="fill: rgb(59, 59, 59); transform-origin: 95.6953px 364.753px;" id="eldgvlmn91tkf" class="animable"></path><path d="M93.14,387.17a21.24,21.24,0,0,1-2-7.5,38.19,38.19,0,0,1-.09-5,18.5,18.5,0,0,1,2.61-8.62,13.73,13.73,0,0,1,1.7-2.16c.47-.45.75-.67.78-.64s-1,1.06-2.09,3a19.79,19.79,0,0,0-2.37,8.43,46.43,46.43,0,0,0,0,4.89,19.22,19.22,0,0,0,.56,3.93A29.26,29.26,0,0,1,93.14,387.17Z" style="fill: rgb(38, 50, 56); transform-origin: 93.5738px 375.209px;" id="ela9wxgpf9loe" class="animable"></path><path d="M70.37,348.92a10.77,10.77,0,0,1,1.11,1.52c.69,1,1.65,2.47,2.83,4.29,2.35,3.64,5.54,8.7,8.93,14.38s6.31,10.91,8.34,14.74c1,1.91,1.82,3.47,2.36,4.56a11,11,0,0,1,.77,1.72,11.59,11.59,0,0,1-1-1.6c-.65-1.16-1.51-2.66-2.53-4.46-2.13-3.77-5.11-9-8.5-14.63S76.23,358.77,73.93,355l-2.65-4.39A12.28,12.28,0,0,1,70.37,348.92Z" style="fill: rgb(38, 50, 56); transform-origin: 82.54px 369.525px;" id="eleb8rmw9xt3h" class="animable"></path><path d="M86.35,378.63a21.65,21.65,0,0,0-19.11-5.12c-1.71.38-3.63,1.27-3.92,3s1.25,3.2,2.75,4.09a18.53,18.53,0,0,0,20.48-1.53" style="fill: rgb(59, 59, 59); transform-origin: 74.9173px 378.003px;" id="elm2d733ak1v" class="animable"></path><path d="M71.21,376.74c0-.05.34-.11,1-.19s1.55-.16,2.69-.22a24.41,24.41,0,0,1,8.83,1.15A15.29,15.29,0,0,1,88,379.86a14.89,14.89,0,0,1,2.77,2.94,14.73,14.73,0,0,1,1.37,2.33,3.07,3.07,0,0,1,.35.93c-.11.06-.71-1.22-2.08-3a15.67,15.67,0,0,0-2.77-2.75,15.89,15.89,0,0,0-4.19-2.25,27.64,27.64,0,0,0-8.62-1.29A33.66,33.66,0,0,1,71.21,376.74Z" style="fill: rgb(38, 50, 56); transform-origin: 81.85px 381.178px;" id="elwvn3z57r4jp" class="animable"></path></g><g id="freepik--Text--inject-54" class="animable" style="transform-origin: 247.265px 437.005px;"><path d="M143.15,425.37l3.68-24.4h7.51v34.36h-5.1V410.69l-3.73,24.64H140.4l-4-24.29v24.29h-4.71V401h7.51Z" style="fill: rgb(38, 50, 56); transform-origin: 143.015px 418.15px;" id="elw40swjyooh" class="animable"></path><path d="M175.75,435.33H170.3l-.93-6.23h-6.63l-.93,6.23h-5l5.5-34.36h7.9Zm-12.32-10.89h5.2L166,407.06Z" style="fill: rgb(38, 50, 56); transform-origin: 166.28px 418.15px;" id="eltgztuwzjty" class="animable"></path><path d="M189.55,435.33c-.3-.88-.5-1.42-.5-4.22v-5.4c0-3.19-1.08-4.37-3.53-4.37h-1.86v14h-5.4V401h8.14c5.6,0,8,2.6,8,7.91v2.7c0,3.53-1.13,5.84-3.54,7,2.7,1.13,3.58,3.73,3.58,7.31v5.3a10.09,10.09,0,0,0,.59,4.17Zm-5.89-29.45v10.56h2.11c2,0,3.24-.89,3.24-3.64v-3.38c0-2.46-.84-3.54-2.75-3.54Z" style="fill: rgb(38, 50, 56); transform-origin: 186.645px 418.195px;" id="elinody5beo3" class="animable"></path><path d="M196.42,401h16.69v4.91h-5.65v29.45h-5.39V405.88h-5.65Z" style="fill: rgb(38, 50, 56); transform-origin: 204.765px 418.18px;" id="el6qb9own197q" class="animable"></path><path d="M215.47,401h5.4v34.36h-5.4Z" style="fill: rgb(38, 50, 56); transform-origin: 218.17px 418.18px;" id="eltivgbtllg1" class="animable"></path><path d="M229.61,410.45v24.88h-4.86V401h6.77l5.55,20.57V401h4.81v34.36h-5.55Z" style="fill: rgb(38, 50, 56); transform-origin: 233.315px 418.18px;" id="elka89olrsklh" class="animable"></path><path d="M253.37,401h5.4v29.46h8.88v4.9H253.37Z" style="fill: rgb(38, 50, 56); transform-origin: 260.51px 418.18px;" id="el8xysxcy3qxj" class="animable"></path><path d="M275.16,401v26.51c0,2.45,1.08,3.34,2.8,3.34s2.8-.89,2.8-3.34V401h5.1v26.17c0,5.49-2.74,8.64-8,8.64s-8.06-3.15-8.06-8.64V401Z" style="fill: rgb(38, 50, 56); transform-origin: 277.83px 418.405px;" id="eltnvj8qboi3" class="animable"></path><path d="M288,401h16.69v4.91H299v29.45h-5.4V405.88H288Z" style="fill: rgb(38, 50, 56); transform-origin: 296.345px 418.18px;" id="el15yox2dr8uc" class="animable"></path><path d="M312.43,435.33H307V401h5.4V415.7h6.13V401h5.5v34.36h-5.5V420.61h-6.13Z" style="fill: rgb(38, 50, 56); transform-origin: 315.515px 418.18px;" id="el22dcobpj58a" class="animable"></path><path d="M333.39,415.45h7.41v4.91h-7.41v10.07h9.32v4.9H328V401h14.72v4.91h-9.32Z" style="fill: rgb(38, 50, 56); transform-origin: 335.36px 418.165px;" id="el54oi6h8mc9h" class="animable"></path><path d="M357.35,435.33c-.3-.88-.5-1.42-.5-4.22v-5.4c0-3.19-1.08-4.37-3.53-4.37h-1.87v14h-5.39V401h8.14c5.6,0,8,2.6,8,7.91v2.7c0,3.53-1.12,5.84-3.53,7,2.7,1.13,3.58,3.73,3.58,7.31v5.3a10.09,10.09,0,0,0,.59,4.17Zm-5.9-29.45v10.56h2.12c2,0,3.24-.89,3.24-3.64v-3.38c0-2.46-.84-3.54-2.75-3.54Z" style="fill: rgb(38, 50, 56); transform-origin: 354.45px 418.195px;" id="eln19egma5svq" class="animable"></path><path d="M200.12,460.06l-1.71,2.88v9.81h-3.26V443.54h3.26v14.1l7.76-14.1h3.3l-7.39,13.31,7.64,15.9h-3.34Z" style="fill: rgb(38, 50, 56); transform-origin: 202.435px 458.145px;" id="elsjpratxkvgg" class="animable"></path><path d="M215.48,443.54v29.21h-3.26V443.54Z" style="fill: rgb(38, 50, 56); transform-origin: 213.85px 458.145px;" id="el13r4lfzubiyh" class="animable"></path><path d="M221.69,472.75h-2.92V443.54h4.14l6.76,21.12V443.54h2.88v29.21h-3.38l-7.48-23.62Z" style="fill: rgb(38, 50, 56); transform-origin: 225.66px 458.145px;" id="el5r0js0t6637" class="animable"></path><path d="M248.78,450.59v2.51h-3.09v-2.68c0-2.62-1-4.21-3.42-4.21s-3.42,1.59-3.42,4.21v15.45c0,2.62,1.08,4.21,3.42,4.21s3.42-1.59,3.42-4.21V460h-3V457.1h6.09v8.6c0,4.42-2.09,7.34-6.59,7.34s-6.56-2.92-6.56-7.34V450.59c0-4.42,2.09-7.34,6.56-7.34S248.78,446.17,248.78,450.59Z" style="fill: rgb(38, 50, 56); transform-origin: 242.205px 458.145px;" id="elb05ac2j3p8n" class="animable"></path><path d="M265.18,443.54c4.55,0,6.64,2.75,6.64,7.26v14.73c0,4.47-2.09,7.22-6.64,7.22h-6.85V443.54Zm0,26.25c2.33,0,3.46-1.46,3.46-4.13v-15c0-2.67-1.13-4.13-3.5-4.13h-3.51v23.29Z" style="fill: rgb(69, 90, 100); transform-origin: 265.075px 458.145px;" id="elzvq59tpw5ic" class="animable"></path><path d="M278.12,466.87,277,472.75h-3l5.6-29.21h4.71l5.59,29.21h-3.25l-1.13-5.88Zm.41-2.8H285l-3.29-16.86Z" style="fill: rgb(69, 90, 100); transform-origin: 281.95px 458.145px;" id="el3gdmjgbnmpg" class="animable"></path><path d="M297.61,462.28l-6.18-18.74h3.38l4.55,14.35L304,443.54H307l-6.22,18.74v10.47h-3.21Z" style="fill: rgb(69, 90, 100); transform-origin: 299.215px 458.145px;" id="elvevb9oii2pb" class="animable"></path></g><g id="freepik--Microphones--inject-54" class="animable animator-active" style="transform-origin: 226.679px 312.715px;"><path d="M76.86,253.9,89,283.53a9.43,9.43,0,0,0,12,5.28l13.77-5a9.43,9.43,0,0,0,5.53-12.32l-11.94-30.24A9.43,9.43,0,0,0,96,235.93l-14,5.65A9.44,9.44,0,0,0,76.86,253.9Z" style="fill: rgb(224, 224, 224); transform-origin: 98.5551px 262.312px;" id="elkhxoj19l98" class="animable"></path><path d="M76.86,253.9a2.6,2.6,0,0,1-.16-.36,6.59,6.59,0,0,1-.35-1.12,9.15,9.15,0,0,1,0-4.46,9.44,9.44,0,0,1,4.07-5.7,26.82,26.82,0,0,1,4-1.83l4.58-1.88,5-2.06c.89-.35,1.75-.74,2.72-1.05a10.24,10.24,0,0,1,3-.41,9.84,9.84,0,0,1,5.94,2.26,9.55,9.55,0,0,1,2.16,2.6,28.9,28.9,0,0,1,1.36,3.14l11,27.78a9.91,9.91,0,0,1,.14,7.83A9.65,9.65,0,0,1,115,284l-13.54,4.94a9.66,9.66,0,0,1-11.77-3.64,15,15,0,0,1-1.31-2.75c-.37-.91-.74-1.8-1.09-2.68l-2.06-5.05c-2.59-6.42-4.7-11.62-6.16-15.25l-1.66-4.16c-.17-.46-.31-.81-.41-1.08a2.94,2.94,0,0,1-.13-.38,2.32,2.32,0,0,1,.18.36c.11.26.27.61.46,1.06.41,1,1,2.35,1.74,4.12,1.51,3.61,3.66,8.8,6.32,15.19.67,1.6,1.36,3.29,2.09,5l1.11,2.68A16,16,0,0,0,90,285a9.24,9.24,0,0,0,11.24,3.42l13.52-5a9.12,9.12,0,0,0,5.17-5,9.41,9.41,0,0,0-.14-7.43l-11-27.8a27.08,27.08,0,0,0-1.32-3.09,9.27,9.27,0,0,0-2-2.48,9.45,9.45,0,0,0-5.66-2.18,9.73,9.73,0,0,0-2.91.38c-.91.28-1.81.68-2.69,1l-5.06,2-4.6,1.84a28.23,28.23,0,0,0-4,1.78,9.24,9.24,0,0,0-4,5.5,9.39,9.39,0,0,0-.11,4.39C76.66,253.4,76.9,253.89,76.86,253.9Z" style="fill: rgb(38, 50, 56); transform-origin: 98.566px 262.35px;" id="elw94j6nuwig" class="animable"></path><path d="M78.51,254.3c1.5-.86,3-1.66,4.6-2.39a1.08,1.08,0,0,0,.39-1.48A1.11,1.11,0,0,0,82,250q-2.35,1.1-4.6,2.39a1.08,1.08,0,0,0-.39,1.48,1.1,1.1,0,0,0,1.48.39Z" style="fill: rgb(38, 50, 56); transform-origin: 80.255px 252.132px;" id="el0nux5v4hav0h" class="animable"></path><path d="M85.92,250.48A77.57,77.57,0,0,1,93.64,247c2.59-1.12,5.22-2.17,7.78-3.38,1.26-.59.16-2.46-1.1-1.87-2.55,1.21-5.18,2.26-7.77,3.38a76.55,76.55,0,0,0-7.72,3.49,1.08,1.08,0,0,0,1.09,1.87Z" style="fill: rgb(38, 50, 56); transform-origin: 93.1358px 246.136px;" id="elfae58h2bs7" class="animable"></path><path d="M104.85,242c.74-.33,1.46-.69,2.17-1.07a1.08,1.08,0,0,0,.39-1.48,1.1,1.1,0,0,0-1.48-.39c-.71.38-1.44.74-2.17,1.07a1.05,1.05,0,0,0-.5.65,1.09,1.09,0,0,0,.11.83,1.05,1.05,0,0,0,.65.5l.28,0a1.06,1.06,0,0,0,.55-.15Z" style="fill: rgb(38, 50, 56); transform-origin: 105.39px 240.515px;" id="elo6rtdwnyhs" class="animable"></path><path d="M79.9,258.45q2.35-1.26,4.82-2.31a1.13,1.13,0,0,0,.5-.65,1.14,1.14,0,0,0-.11-.83,1.09,1.09,0,0,0-.65-.5,1.3,1.3,0,0,0-.84.11q-2.46,1-4.82,2.31a1.09,1.09,0,0,0-.39,1.48,1.11,1.11,0,0,0,1.49.39Z" style="fill: rgb(38, 50, 56); transform-origin: 81.7597px 256.363px;" id="elbewhxwqbze" class="animable"></path><path d="M81.65,262.6q2.35-1.26,4.82-2.31a1.13,1.13,0,0,0,.5-.65,1.14,1.14,0,0,0-.11-.83,1.08,1.08,0,0,0-.65-.5,1.29,1.29,0,0,0-.84.11c-1.64.69-3.25,1.47-4.82,2.31a1.09,1.09,0,0,0-.39,1.48,1.12,1.12,0,0,0,1.49.39Z" style="fill: rgb(38, 50, 56); transform-origin: 83.5097px 260.511px;" id="elp1umq0qagw" class="animable"></path><path d="M83.28,266.55q2.35-1.26,4.82-2.31a1.13,1.13,0,0,0,.5-.65,1.09,1.09,0,0,0-.76-1.33,1.26,1.26,0,0,0-.83.11c-1.65.7-3.25,1.47-4.83,2.31a1.1,1.1,0,0,0-.39,1.48,1.11,1.11,0,0,0,1.49.39Z" style="fill: rgb(38, 50, 56); transform-origin: 85.1429px 264.462px;" id="elrrjhorumz9q" class="animable"></path><path d="M84.92,270.5q2.35-1.26,4.82-2.31a1.13,1.13,0,0,0,.5-.65,1.09,1.09,0,0,0-.76-1.33,1.3,1.3,0,0,0-.84.11c-1.64.7-3.24,1.47-4.82,2.31a1.09,1.09,0,0,0-.39,1.48,1.11,1.11,0,0,0,1.49.39Z" style="fill: rgb(38, 50, 56); transform-origin: 86.7811px 268.413px;" id="elycqhh2hazm" class="animable"></path><path d="M86.47,274.4c1.57-.84,3.18-1.62,4.82-2.31a1.09,1.09,0,0,0,.39-1.49,1.07,1.07,0,0,0-.65-.49,1.2,1.2,0,0,0-.83.11c-1.65.69-3.25,1.46-4.83,2.31A1.1,1.1,0,0,0,85,274a1.12,1.12,0,0,0,1.49.39Z" style="fill: rgb(38, 50, 56); transform-origin: 88.3434px 272.304px;" id="elm03qkqku6wn" class="animable"></path><path d="M88.1,278.46q2.36-1.26,4.82-2.31a1.08,1.08,0,0,0-.26-2,1.26,1.26,0,0,0-.83.11q-2.46,1.05-4.82,2.31a1.08,1.08,0,0,0-.39,1.48,1.1,1.1,0,0,0,1.48.39Z" style="fill: rgb(38, 50, 56); transform-origin: 89.9792px 276.352px;" id="elwg669dzc6th" class="animable"></path><path d="M89.74,282.24q2.36-1.26,4.82-2.31a1.08,1.08,0,0,0,.5-.64A1.09,1.09,0,0,0,94.3,278a1.32,1.32,0,0,0-.83.11q-2.46,1.05-4.83,2.31a1.08,1.08,0,0,0,1.1,1.87Z" style="fill: rgb(38, 50, 56); transform-origin: 91.5963px 280.208px;" id="elwn1gwl70ohg" class="animable"></path><path d="M88.34,254.83a72.34,72.34,0,0,1,7.72-3.49c2.59-1.12,5.22-2.18,7.77-3.38,1.27-.59.17-2.46-1.09-1.87-2.55,1.2-5.19,2.25-7.78,3.37a74.29,74.29,0,0,0-7.71,3.5,1.08,1.08,0,0,0,1.09,1.87Z" style="fill: rgb(38, 50, 56); transform-origin: 95.5535px 250.477px;" id="eljd646feifzo" class="animable"></path><path d="M107.27,246.34l1-.44c.31-.16.62-.32.92-.49a1.08,1.08,0,0,0-.26-2,1.14,1.14,0,0,0-.83.11l-.93.49-1,.44a1.11,1.11,0,0,0-.5.64,1.09,1.09,0,0,0,.76,1.34l.29,0a1.06,1.06,0,0,0,.55-.15Z" style="fill: rgb(38, 50, 56); transform-origin: 107.694px 244.903px;" id="ele0d51nxzpus" class="animable"></path><path d="M89.78,258.78a74.22,74.22,0,0,1,7.71-3.49c2.6-1.12,5.23-2.18,7.78-3.38,1.26-.59.16-2.46-1.09-1.87-2.56,1.2-5.19,2.26-7.78,3.38a73.25,73.25,0,0,0-7.72,3.49,1.09,1.09,0,0,0,1.1,1.87Z" style="fill: rgb(38, 50, 56); transform-origin: 97.0296px 254.404px;" id="elgjfqhpl2tv6" class="animable"></path><path d="M108.7,250.29c.69-.31,1.36-.64,2-1a1.11,1.11,0,0,0,.5-.64,1.09,1.09,0,0,0-.76-1.34,1.19,1.19,0,0,0-.83.11c-.67.36-1.33.69-2,1a1.08,1.08,0,0,0,.26,2l.29,0a1,1,0,0,0,.54-.15Z" style="fill: rgb(38, 50, 56); transform-origin: 109.141px 248.85px;" id="elr1mcqj0sm8f" class="animable"></path><path d="M91.21,262.73a77.57,77.57,0,0,1,7.72-3.49c2.59-1.12,5.22-2.18,7.78-3.38,1.26-.59.16-2.46-1.09-1.87-2.56,1.2-5.19,2.26-7.78,3.38a74.38,74.38,0,0,0-7.72,3.49,1.08,1.08,0,0,0,1.09,1.87Z" style="fill: rgb(38, 50, 56); transform-origin: 98.4253px 258.377px;" id="el7ghe5eg5brg" class="animable"></path><path d="M110.14,254.24c.78-.35,1.55-.73,2.3-1.13a1.16,1.16,0,0,0,.5-.65,1.09,1.09,0,0,0-1.59-1.23c-.76.41-1.52.79-2.3,1.14a1.08,1.08,0,0,0,.26,2l.29,0a1,1,0,0,0,.54-.15Z" style="fill: rgb(38, 50, 56); transform-origin: 110.73px 252.729px;" id="el3vv48amuegd" class="animable"></path><path d="M92.65,266.68a77.57,77.57,0,0,1,7.72-3.49c2.59-1.12,5.22-2.17,7.78-3.38,1.26-.59.16-2.46-1.1-1.87-2.55,1.2-5.18,2.26-7.77,3.38a76.55,76.55,0,0,0-7.72,3.49,1.08,1.08,0,0,0,1.09,1.87Z" style="fill: rgb(38, 50, 56); transform-origin: 99.8658px 262.326px;" id="el6g8g9lv6xbf" class="animable"></path><path d="M111.58,258.19c.76-.34,1.51-.71,2.24-1.11a1.11,1.11,0,0,0,.5-.64,1.09,1.09,0,0,0-1.59-1.23c-.74.4-1.48.77-2.24,1.11a1.05,1.05,0,0,0-.5.65,1.09,1.09,0,0,0,.76,1.33l.28,0a1.06,1.06,0,0,0,.55-.15Z" style="fill: rgb(38, 50, 56); transform-origin: 112.155px 256.684px;" id="elkj2b1i6zeuc" class="animable"></path><path d="M94.09,270.63a76.55,76.55,0,0,1,7.72-3.49c2.59-1.12,5.22-2.17,7.78-3.38,1.26-.59.16-2.46-1.1-1.87-2.55,1.21-5.18,2.26-7.78,3.38A76.38,76.38,0,0,0,93,268.76a1.08,1.08,0,0,0,1.09,1.87Z" style="fill: rgb(38, 50, 56); transform-origin: 101.306px 266.276px;" id="el4o3o8pyh9fh" class="animable"></path><path d="M113,262.14c.81-.36,1.61-.76,2.4-1.18a1.16,1.16,0,0,0,.5-.65,1.08,1.08,0,0,0-1.6-1.22c-.78.42-1.58.81-2.4,1.18a1.07,1.07,0,0,0-.49.65,1.05,1.05,0,0,0,.11.83,1,1,0,0,0,.64.5l.29,0a1.06,1.06,0,0,0,.55-.15Z" style="fill: rgb(38, 50, 56); transform-origin: 113.656px 260.591px;" id="elg1s6wwvkpju" class="animable"></path><path d="M95.53,274.58a75.55,75.55,0,0,1,7.72-3.49c2.59-1.12,5.22-2.17,7.77-3.37,1.26-.6.17-2.47-1.09-1.88-2.56,1.21-5.19,2.26-7.78,3.38a77.57,77.57,0,0,0-7.72,3.49,1.09,1.09,0,0,0,1.1,1.87Z" style="fill: rgb(38, 50, 56); transform-origin: 102.781px 270.204px;" id="eldzv0y3gc2t5" class="animable"></path><path d="M114.46,266.09c.86-.38,1.7-.8,2.53-1.25A1.08,1.08,0,0,0,115.9,263c-.83.45-1.68.87-2.54,1.25a1.16,1.16,0,0,0-.5.65,1.12,1.12,0,0,0,.11.84,1.07,1.07,0,0,0,.65.49l.29,0a1.08,1.08,0,0,0,.55-.15Z" style="fill: rgb(38, 50, 56); transform-origin: 115.109px 264.574px;" id="elt7uow9ts3os" class="animable"></path><path d="M97,278.46a76.38,76.38,0,0,1,7.71-3.49c2.59-1.12,5.23-2.17,7.78-3.38,1.26-.59.16-2.46-1.09-1.87-2.56,1.2-5.19,2.26-7.78,3.38a77.57,77.57,0,0,0-7.72,3.49,1.09,1.09,0,0,0,1.1,1.87Z" style="fill: rgb(38, 50, 56); transform-origin: 104.25px 274.084px;" id="elu77531fm6sl" class="animable"></path><path d="M115.89,270.05c.85-.38,1.67-.79,2.48-1.23a1.08,1.08,0,0,0,.39-1.48,1.1,1.1,0,0,0-1.48-.39c-.81.44-1.64.85-2.48,1.22a1.16,1.16,0,0,0-.5.65,1.09,1.09,0,0,0,.76,1.34l.29,0a1.14,1.14,0,0,0,.54-.14Z" style="fill: rgb(38, 50, 56); transform-origin: 116.584px 268.484px;" id="ellm7efbsdbb" class="animable"></path><path d="M100.87,238.12a21.53,21.53,0,0,1-3.18,1.42l-7.77,3.15c-3,1.24-5.74,2.44-7.68,3.36a32.48,32.48,0,0,1-3.15,1.47,3.42,3.42,0,0,1,.77-.54c.51-.32,1.27-.75,2.22-1.25,1.9-1,4.6-2.27,7.64-3.52s5.82-2.29,7.84-3A24.35,24.35,0,0,1,100.87,238.12Z" style="fill: rgb(38, 50, 56); transform-origin: 89.98px 242.82px;" id="eluyiftur5np" class="animable"></path><path d="M117.29,275.32s.06.4-.3,1a12.74,12.74,0,0,1-1.74,2.12,12.22,12.22,0,0,1-3.4,2.23,44.26,44.26,0,0,1-4.64,1.74,40.2,40.2,0,0,0-4.56,1.78,20.76,20.76,0,0,1-3.84,1.33,9.69,9.69,0,0,1-2.73.25,2.89,2.89,0,0,1-1-.17,15.54,15.54,0,0,0,3.64-.43,24.18,24.18,0,0,0,3.72-1.42,35.94,35.94,0,0,1,4.59-1.84c1.66-.55,3.24-1.06,4.61-1.67a13,13,0,0,0,3.35-2.07,16.88,16.88,0,0,0,1.82-2A3.57,3.57,0,0,0,117.29,275.32Z" style="fill: rgb(38, 50, 56); transform-origin: 106.187px 280.551px;" id="elp8ez1t5ug8g" class="animable"></path><path d="M121,311.24l-2.64,1.17a4.32,4.32,0,0,1-5.69-2.21l-10-21.79a1.23,1.23,0,0,1,.63-1.64l10.59-4.61c.4-.18,1,1.46,1.16,1.86l8.79,19.92A5.53,5.53,0,0,1,121,311.24Z" style="fill: rgb(224, 224, 224); transform-origin: 113.435px 297.461px;" id="ellytqk9ow53h" class="animable"></path><polygon points="113.61 309.48 101.86 390.27 109.59 390.27 120.59 310.12 113.61 309.48" style="fill: rgb(224, 224, 224); transform-origin: 111.225px 349.875px;" id="elc1ztvnktrkn" class="animable"></polygon><path d="M114.36,306.84a3.54,3.54,0,1,1,4.33,2.52A3.54,3.54,0,0,1,114.36,306.84Z" style="fill: rgb(38, 50, 56); transform-origin: 117.783px 305.938px;" id="elehkyjq2j9na" class="animable"></path><path d="M116.13,283.13a55.38,55.38,0,0,1-7.12,3.11,59.26,59.26,0,0,1-7.32,2.62,58.54,58.54,0,0,1,7.13-3.11A58.83,58.83,0,0,1,116.13,283.13Z" style="fill: rgb(38, 50, 56); transform-origin: 108.91px 285.995px;" id="elbhtacz122t9" class="animable"></path><path d="M123.56,309.28s-.26.64-1,1.39a7.53,7.53,0,0,1-3.73,1.89,7.61,7.61,0,0,1-4.17-.38,3.41,3.41,0,0,1-1.48-.9c.05-.07.62.26,1.6.55a8.46,8.46,0,0,0,4,.22,8.34,8.34,0,0,0,3.59-1.66C123.08,309.75,123.49,309.23,123.56,309.28Z" style="fill: rgb(38, 50, 56); transform-origin: 118.37px 310.985px;" id="elab8bhy4dlxq" class="animable"></path><path d="M376.61,316.39l-9.36,22.81a7.25,7.25,0,0,1-9.21,4.06l-10.6-3.88a7.25,7.25,0,0,1-4.25-9.48l9.19-23.28a7.26,7.26,0,0,1,9.47-4.07l10.77,4.35A7.26,7.26,0,0,1,376.61,316.39Z" style="fill: rgb(224, 224, 224); transform-origin: 359.918px 322.864px;" id="elac4qrvva6oi" class="animable"></path><path d="M376.61,316.39s.15-.39.31-1.16a7.22,7.22,0,0,0-.1-3.37,7.08,7.08,0,0,0-3.09-4.21,20.5,20.5,0,0,0-3.08-1.36l-3.55-1.41-3.89-1.56c-.68-.26-1.37-.57-2.07-.79a7.47,7.47,0,0,0-2.22-.28,7.1,7.1,0,0,0-4.32,1.66,6.84,6.84,0,0,0-1.56,1.9,19,19,0,0,0-1,2.37c-2.59,6.58-5.44,13.81-8.42,21.4a7.11,7.11,0,0,0-.11,5.68,7,7,0,0,0,3.94,3.84l10.4,3.83a7,7,0,0,0,8.59-2.62,11,11,0,0,0,1-2l.86-2.06c.55-1.35,1.09-2.65,1.6-3.88,2.06-4.91,3.72-8.89,4.89-11.68.57-1.35,1-2.41,1.35-3.17l.36-.82a2,2,0,0,1,.14-.27,1.14,1.14,0,0,1-.09.29l-.31.84c-.31.76-.73,1.84-1.27,3.2l-4.73,11.75c-.5,1.24-1,2.54-1.57,3.89q-.42,1-.84,2.07a12.45,12.45,0,0,1-1,2.12,7.57,7.57,0,0,1-3.9,3,7.67,7.67,0,0,1-5.21-.18l-10.43-3.81a7.45,7.45,0,0,1-4.23-4.12,7.65,7.65,0,0,1,.1-6.06c3-7.59,5.86-14.81,8.47-21.39a21.47,21.47,0,0,1,1.05-2.43,7.56,7.56,0,0,1,1.67-2,7.67,7.67,0,0,1,4.61-1.75,8,8,0,0,1,2.35.32c.75.24,1.42.55,2.1.82l3.88,1.58,3.53,1.45a22.44,22.44,0,0,1,3.12,1.42,7.25,7.25,0,0,1,3.13,4.41,7,7,0,0,1,0,3.44,5.08,5.08,0,0,1-.28.86A1.47,1.47,0,0,1,376.61,316.39Z" style="fill: rgb(38, 50, 56); transform-origin: 359.884px 322.905px;" id="el79ery8vm9zt" class="animable"></path><path d="M375.34,316.7c-1.15-.67-2.33-1.28-3.54-1.84a.83.83,0,0,1-.3-1.14.85.85,0,0,1,1.14-.3c1.21.56,2.39,1.17,3.55,1.84a.84.84,0,0,1,.29,1.14.85.85,0,0,1-1.14.3Z" style="fill: rgb(38, 50, 56); transform-origin: 373.989px 315.06px;" id="elr64yx25gkdi" class="animable"></path><path d="M369.64,313.76a56.57,56.57,0,0,0-5.94-2.69c-2-.86-4-1.67-6-2.6-1-.46-.13-1.89.84-1.44,2,.93,4,1.74,6,2.6a56.57,56.57,0,0,1,5.94,2.69.83.83,0,0,1-.84,1.44Z" style="fill: rgb(38, 50, 56); transform-origin: 364.074px 310.408px;" id="elwyo106grzj" class="animable"></path><path d="M355.07,307.22c-.57-.25-1.13-.53-1.67-.82a.92.92,0,0,1-.39-.5.84.84,0,0,1,1.23-.94c.55.29,1.1.57,1.67.82a.84.84,0,0,1,.3,1.14.88.88,0,0,1-.5.39l-.22,0a.79.79,0,0,1-.42-.12Z" style="fill: rgb(38, 50, 56); transform-origin: 354.652px 306.08px;" id="ela8b1uby9c9b" class="animable"></path><path d="M374.28,319.89c-1.21-.65-2.45-1.24-3.71-1.78a.82.82,0,0,1-.39-.5.85.85,0,0,1,.09-.64.81.81,0,0,1,.49-.38,1,1,0,0,1,.65.08c1.26.54,2.5,1.13,3.71,1.78a.84.84,0,0,1,.3,1.14.85.85,0,0,1-1.14.3Z" style="fill: rgb(38, 50, 56); transform-origin: 372.842px 318.283px;" id="ell62mzghc9hg" class="animable"></path><path d="M372.93,323.08c-1.21-.64-2.45-1.24-3.71-1.77a.83.83,0,0,1-.3-1.15.84.84,0,0,1,.5-.38,1,1,0,0,1,.64.08c1.26.54,2.5,1.14,3.71,1.78a.83.83,0,0,1-.84,1.44Z" style="fill: rgb(38, 50, 56); transform-origin: 371.492px 321.476px;" id="el3uvq5sccys2" class="animable"></path><path d="M371.67,326.13c-1.21-.65-2.44-1.25-3.71-1.78a.84.84,0,0,1-.3-1.14.88.88,0,0,1,.5-.39.94.94,0,0,1,.64.09c1.27.53,2.51,1.13,3.72,1.77a.84.84,0,0,1-.85,1.45Z" style="fill: rgb(38, 50, 56); transform-origin: 370.24px 324.521px;" id="elyv4jqyxf3km" class="animable"></path><path d="M370.41,329.17c-1.21-.65-2.45-1.24-3.71-1.78a.84.84,0,0,1-.3-1.14.88.88,0,0,1,.5-.39,1,1,0,0,1,.64.09c1.27.54,2.5,1.13,3.71,1.78a.83.83,0,0,1,.3,1.14.85.85,0,0,1-1.14.3Z" style="fill: rgb(38, 50, 56); transform-origin: 368.977px 327.56px;" id="elfe1qrpq2rin" class="animable"></path><path d="M369.22,332.17c-1.21-.65-2.45-1.24-3.71-1.78a.85.85,0,0,1-.39-.5.84.84,0,0,1,.09-.64.82.82,0,0,1,.5-.39,1,1,0,0,1,.64.09c1.26.54,2.5,1.13,3.71,1.78a.83.83,0,0,1,.3,1.14.85.85,0,0,1-1.14.3Z" style="fill: rgb(38, 50, 56); transform-origin: 367.784px 330.56px;" id="elhc55wkeevhn" class="animable"></path><path d="M368,335.3c-1.21-.65-2.45-1.25-3.71-1.78a.84.84,0,0,1-.3-1.14.88.88,0,0,1,.5-.39,1,1,0,0,1,.64.09c1.27.53,2.5,1.13,3.71,1.77a.84.84,0,0,1-.84,1.45Z" style="fill: rgb(38, 50, 56); transform-origin: 366.544px 333.679px;" id="elvn11jkqn1ts" class="animable"></path><path d="M366.7,338.21c-1.21-.65-2.45-1.24-3.71-1.78a.8.8,0,0,1-.38-.5.84.84,0,0,1,.58-1,1,1,0,0,1,.64.09c1.26.54,2.5,1.13,3.71,1.78a.83.83,0,0,1,.3,1.14.85.85,0,0,1-1.14.3Z" style="fill: rgb(38, 50, 56); transform-origin: 365.271px 336.63px;" id="elqs6elg3t1v" class="animable"></path><path d="M367.78,317.1a61,61,0,0,0-5.94-2.69c-2-.86-4-1.67-6-2.6-1-.45-.13-1.89.84-1.44,2,.93,4,1.74,6,2.6a61,61,0,0,1,5.94,2.69.83.83,0,0,1-.84,1.44Z" style="fill: rgb(38, 50, 56); transform-origin: 362.215px 313.749px;" id="el8d45tu82nn" class="animable"></path><path d="M353.21,310.57l-.73-.34c-.25-.12-.48-.25-.72-.38a.8.8,0,0,1-.38-.5.84.84,0,0,1,.08-.64.86.86,0,0,1,.5-.38.88.88,0,0,1,.64.08l.72.38.73.34a.81.81,0,0,1,.38.49.83.83,0,0,1-.58,1l-.22,0a.88.88,0,0,1-.42-.11Z" style="fill: rgb(38, 50, 56); transform-origin: 352.902px 309.461px;" id="elyhjshv2fg5" class="animable"></path><path d="M366.67,320.14a58.62,58.62,0,0,0-5.94-2.68c-2-.87-4-1.68-6-2.6-1-.46-.12-1.9.84-1.44,2,.92,4,1.73,6,2.6a58.62,58.62,0,0,1,5.94,2.68.83.83,0,0,1-.84,1.44Z" style="fill: rgb(38, 50, 56); transform-origin: 361.106px 316.792px;" id="elpskom9i1rj" class="animable"></path><path d="M352.1,313.61c-.53-.24-1-.49-1.55-.77a.83.83,0,0,1-.38-.5.84.84,0,0,1,.08-.64.86.86,0,0,1,.5-.38.89.89,0,0,1,.64.08c.51.28,1,.53,1.55.77a.82.82,0,0,1,.3,1.14.8.8,0,0,1-.5.38l-.22,0a.88.88,0,0,1-.42-.11Z" style="fill: rgb(38, 50, 56); transform-origin: 351.749px 312.492px;" id="eliynqm6m21m" class="animable"></path><path d="M365.56,323.19a54.77,54.77,0,0,0-5.94-2.69c-2-.86-4-1.68-6-2.6-1-.46-.13-1.9.84-1.44,2,.92,4,1.73,6,2.6a57.8,57.8,0,0,1,6,2.68.84.84,0,0,1-.85,1.45Z" style="fill: rgb(38, 50, 56); transform-origin: 360.026px 319.838px;" id="el6xsi4mf791y" class="animable"></path><path d="M351,316.65c-.6-.27-1.18-.56-1.76-.87a.88.88,0,0,1-.39-.5.84.84,0,0,1,1.23-.94c.58.31,1.16.6,1.77.87a.87.87,0,0,1,.38.5.85.85,0,0,1-.09.64.78.78,0,0,1-.49.38l-.23,0a.78.78,0,0,1-.42-.11Z" style="fill: rgb(38, 50, 56); transform-origin: 350.54px 315.48px;" id="elbgj06mq7o6v" class="animable"></path><path d="M364.46,326.23a56.57,56.57,0,0,0-5.94-2.69c-2-.86-4-1.67-6-2.6-1-.46-.13-1.9.84-1.44,2,.92,4,1.74,6,2.6a56.57,56.57,0,0,1,5.94,2.69.83.83,0,0,1-.84,1.44Z" style="fill: rgb(38, 50, 56); transform-origin: 358.894px 322.876px;" id="eljrpl424ayvl" class="animable"></path><path d="M349.89,319.69c-.59-.26-1.16-.54-1.73-.85a.83.83,0,0,1-.38-.5.84.84,0,0,1,.08-.64.86.86,0,0,1,1.14-.3c.57.3,1.14.59,1.73.85a.84.84,0,0,1,.3,1.14.88.88,0,0,1-.5.39l-.22,0a.79.79,0,0,1-.42-.12Z" style="fill: rgb(38, 50, 56); transform-origin: 349.445px 318.538px;" id="elf6yc8j5jk8a" class="animable"></path><path d="M363.35,329.27a58.69,58.69,0,0,0-5.94-2.69c-2-.86-4-1.67-6-2.6-1-.46-.12-1.89.84-1.44,2,.93,4,1.74,6,2.6a58.69,58.69,0,0,1,5.94,2.69.83.83,0,0,1-.84,1.44Z" style="fill: rgb(38, 50, 56); transform-origin: 357.785px 325.918px;" id="elgbaula7jhr8" class="animable"></path><path d="M348.78,322.73c-.63-.28-1.24-.58-1.85-.91a.83.83,0,0,1-.38-.5.84.84,0,0,1,.08-.64.85.85,0,0,1,1.14-.3c.61.33,1.22.63,1.85.91a.85.85,0,0,1,.39.5.84.84,0,0,1-.09.64.82.82,0,0,1-.5.39l-.22,0a.79.79,0,0,1-.42-.12Z" style="fill: rgb(38, 50, 56); transform-origin: 348.278px 321.546px;" id="elvvhnwyi6n5" class="animable"></path><path d="M362.24,332.31a58.9,58.9,0,0,0-5.94-2.69c-2-.86-4-1.67-6-2.6-1-.45-.13-1.89.84-1.44,2,.93,4,1.74,6,2.6a60.1,60.1,0,0,1,5.95,2.69.84.84,0,0,1-.85,1.44Z" style="fill: rgb(38, 50, 56); transform-origin: 356.646px 328.941px;" id="elgl4x899bhj9" class="animable"></path><path d="M347.67,325.78c-.66-.3-1.31-.62-1.95-1a.83.83,0,0,1-.3-1.14.85.85,0,0,1,1.14-.3c.64.34,1.29.67,2,1a.85.85,0,0,1,.38.49.87.87,0,0,1-.09.65.85.85,0,0,1-.49.38l-.23,0a.88.88,0,0,1-.42-.11Z" style="fill: rgb(38, 50, 56); transform-origin: 347.136px 324.546px;" id="elsjy4ni8p8z" class="animable"></path><path d="M361.14,335.3a56.57,56.57,0,0,0-5.94-2.69c-2-.86-4-1.68-6-2.6-1-.46-.13-1.9.84-1.44,2,.92,4,1.73,6,2.6a58.62,58.62,0,0,1,5.94,2.68.84.84,0,0,1-.84,1.45Z" style="fill: rgb(38, 50, 56); transform-origin: 355.552px 331.933px;" id="elq1xg7c1qm6b" class="animable"></path><path d="M346.57,328.82c-.65-.29-1.29-.61-1.91-.95a.81.81,0,0,1-.3-1.14.85.85,0,0,1,1.14-.3c.63.34,1.26.65,1.91.95a.8.8,0,0,1,.38.5.85.85,0,0,1-.08.64.86.86,0,0,1-.5.38l-.22,0a.88.88,0,0,1-.42-.11Z" style="fill: rgb(38, 50, 56); transform-origin: 346.028px 327.611px;" id="eld7xsxev66bh" class="animable"></path><path d="M358.13,304.24a14.36,14.36,0,0,1,2.56.79c1.57.55,3.71,1.34,6.05,2.3a64.13,64.13,0,0,1,5.88,2.73,10.19,10.19,0,0,1,2.27,1.42,19.07,19.07,0,0,1-2.44-1.09c-1.49-.7-3.58-1.62-5.91-2.58l-6-2.43A13.35,13.35,0,0,1,358.13,304.24Z" style="fill: rgb(38, 50, 56); transform-origin: 366.51px 307.86px;" id="elc6hwpb9g0np" class="animable"></path><path d="M345.49,332.87a3.38,3.38,0,0,0,.38.64,13.42,13.42,0,0,0,1.41,1.5,9.91,9.91,0,0,0,2.58,1.57c1.05.47,2.26.86,3.54,1.29a27.18,27.18,0,0,1,3.54,1.42,17.46,17.46,0,0,0,2.85,1.09,13.92,13.92,0,0,0,2.79.38,1.8,1.8,0,0,1-.76.15,7.12,7.12,0,0,1-2.12-.17,16.49,16.49,0,0,1-3-1,29.91,29.91,0,0,0-3.51-1.37,35.68,35.68,0,0,1-3.57-1.34,9.39,9.39,0,0,1-2.63-1.74,9.81,9.81,0,0,1-1.33-1.65C345.43,333.19,345.46,332.86,345.49,332.87Z" style="fill: rgb(38, 50, 56); transform-origin: 354.025px 336.899px;" id="eldqqan67e1lr" class="animable"></path><path d="M342.61,360.53l2,.9a3.31,3.31,0,0,0,4.37-1.7L356.73,343a.94.94,0,0,0-.49-1.26l-8.15-3.55c-.3-.13-.76,1.13-.89,1.43l-6.77,15.34A4.27,4.27,0,0,0,342.61,360.53Z" style="fill: rgb(224, 224, 224); transform-origin: 348.452px 349.947px;" id="ele68yb6ifmv7" class="animable"></path><polygon points="348.32 359.17 352.42 390.4 346.47 390.4 342.95 359.67 348.32 359.17" style="fill: rgb(224, 224, 224); transform-origin: 347.685px 374.785px;" id="el2lq882u8i1a" class="animable"></polygon><path d="M347.75,357.14a2.73,2.73,0,1,0-3.34,1.94A2.73,2.73,0,0,0,347.75,357.14Z" style="fill: rgb(38, 50, 56); transform-origin: 345.111px 356.442px;" id="el3o1xieiqmja" class="animable"></path><path d="M346.38,338.89a35.41,35.41,0,0,1,5.66,2,34.56,34.56,0,0,1,5.46,2.45,68.69,68.69,0,0,1-11.12-4.41Z" style="fill: rgb(38, 50, 56); transform-origin: 351.94px 341.115px;" id="el0yxqohcplpdl" class="animable"></path><path d="M340.67,359c.06,0,.39.34,1,.82a6.58,6.58,0,0,0,2.75,1.25,6.46,6.46,0,0,0,3-.15,7.84,7.84,0,0,1,1.25-.38c0,.05-.35.41-1.13.73a5.78,5.78,0,0,1-6.12-1.17C340.84,359.53,340.62,359.06,340.67,359Z" style="fill: rgb(38, 50, 56); transform-origin: 344.667px 360.342px;" id="ele7vepp1zncd" class="animable"></path></g><g id="freepik--Table--inject-54" class="animable" style="transform-origin: 252px 390.13px;"><path d="M414.47,390.13c0,.14-72.74.26-162.46.26s-162.48-.12-162.48-.26,72.73-.26,162.48-.26S414.47,390,414.47,390.13Z" style="fill: rgb(38, 50, 56); transform-origin: 252px 390.13px;" id="elzyty7q943e" class="animable"></path></g><g id="freepik--Clouds--inject-54" class="animable" style="transform-origin: 237.721px 300.018px;"><path d="M292.52,283.05c.29-2.15-2.74-3.92-5-4.1a12.87,12.87,0,0,1-3.24-.28c-2.24-.78-3.13-3.66-5.3-4.58-1.63-.68-3.51-.07-5.08.72s-3.14,1.79-4.9,1.91c-1.54.1-3.2-.47-4.54.28-1,.55-1.53,1.71-2.45,2.39a5.87,5.87,0,0,1-3.2.86,8.92,8.92,0,0,0-3.29.54,2.6,2.6,0,0,0-1.65,2.64Z" style="fill: rgb(235, 235, 235); transform-origin: 273.2px 278.613px;" id="el4a7niqoe2rs" class="animable"></path><path d="M342.7,343.07c.48-3.49-4.42-6.37-8.11-6.67-1.75-.14-3.58.13-5.24-.45-3.6-1.27-5-5.95-8.56-7.45-2.63-1.11-5.66-.12-8.21,1.17s-5.06,2.92-7.91,3.1c-2.48.16-5.17-.76-7.34.45-1.61.91-2.46,2.78-3.94,3.89a9.42,9.42,0,0,1-5.17,1.41,14.68,14.68,0,0,0-5.32.87c-1.65.76-3,2.51-2.67,4.3Z" style="fill: rgb(235, 235, 235); transform-origin: 311.456px 335.855px;" id="elx1obzpi9et7" class="animable"></path><path d="M180,267.65c.37-2.62-3.34-4.79-6.13-5a15.87,15.87,0,0,1-4-.34c-2.73-.95-3.81-4.48-6.48-5.6-2-.84-4.28-.09-6.21.88s-3.83,2.19-6,2.33c-1.87.12-3.91-.58-5.55.34-1.22.68-1.86,2.09-3,2.92a7.14,7.14,0,0,1-3.91,1.06,11.15,11.15,0,0,0-4,.66,3.21,3.21,0,0,0-2,3.23Z" style="fill: rgb(235, 235, 235); transform-origin: 156.368px 262.238px;" id="elf96t31wmkx" class="animable"></path></g><g id="freepik--Birds--inject-54" class="animable" style="transform-origin: 150.71px 172.26px;"><path d="M191.76,188.06a2.69,2.69,0,0,1-.37.44l-1.11,1.21a50.74,50.74,0,0,0-3.76,4.73,46.75,46.75,0,0,0-7.58,18.23c-.22,1.15-.36,2.29-.49,3.37l-.1.86-.38-.77A53.63,53.63,0,0,0,167.6,202c-1.6-1.55-3-2.71-3.92-3.49a14.27,14.27,0,0,1-1.46-1.23,2.52,2.52,0,0,1,.42.26c.27.18.67.45,1.16.82a45.12,45.12,0,0,1,4,3.39,51.08,51.08,0,0,1,10.59,14.15l-.49.09c.13-1.1.27-2.25.48-3.41a45.41,45.41,0,0,1,7.8-18.35,42.32,42.32,0,0,1,3.91-4.65c.5-.52.91-.89,1.19-1.15A2.54,2.54,0,0,1,191.76,188.06Z" style="fill: rgb(38, 50, 56); transform-origin: 176.99px 202.48px;" id="elc2mlvfo6uxb" class="animable"></path><path d="M140.19,127.62a10.62,10.62,0,0,1-1.3,1,38.92,38.92,0,0,0-3.39,2.92,34.71,34.71,0,0,0-8.08,12.16c-.31.8-.58,1.61-.82,2.38l-.27.82-.23-.83a40,40,0,0,0-5.5-11.74c-.93-1.36-1.75-2.4-2.33-3.1a10.13,10.13,0,0,1-.88-1.12,7.35,7.35,0,0,1,1,1,32.85,32.85,0,0,1,2.47,3A37.78,37.78,0,0,1,126.6,146h-.5c.25-.78.52-1.6.84-2.42a33.45,33.45,0,0,1,8.31-12.24,31.2,31.2,0,0,1,3.52-2.82c.44-.29.8-.5,1-.65A2.06,2.06,0,0,1,140.19,127.62Z" style="fill: rgb(38, 50, 56); transform-origin: 128.79px 137.26px;" id="el3y10u401dcv" class="animable"></path><path d="M149.16,173.29a28.27,28.27,0,0,0-6.27,1.5,22.23,22.23,0,0,0-6,3.48,21.3,21.3,0,0,0-5.44,6.51l-.16.28-.12.21-.21-.08a30.61,30.61,0,0,0-15.11-1.66,33.3,33.3,0,0,0-4.55,1,14.93,14.93,0,0,1-1.64.47s.13-.08.39-.2.67-.29,1.19-.46a26.88,26.88,0,0,1,4.56-1.14,29.88,29.88,0,0,1,15.35,1.53l-.33.12.17-.29a21.93,21.93,0,0,1,11.8-10.08,19.46,19.46,0,0,1,4.65-1.09c.56-.08,1-.07,1.3-.09A1.54,1.54,0,0,1,149.16,173.29Z" style="fill: rgb(38, 50, 56); transform-origin: 129.41px 179.275px;" id="elfwz46fz4ful" class="animable"></path><path d="M186.8,149.58a42.39,42.39,0,0,0-4.4,2.15,24.43,24.43,0,0,0-8.43,8.36l-.2.32-.23-.3c-.43-.54-.88-1.12-1.38-1.66a25.23,25.23,0,0,0-11.23-7.13,40,40,0,0,0-5.49-1.12,7.67,7.67,0,0,1,1.52,0A23.05,23.05,0,0,1,161,151a24.42,24.42,0,0,1,11.51,7.13c.52.55,1,1.15,1.41,1.7l-.43,0a23.7,23.7,0,0,1,8.71-8.4,21,21,0,0,1,3.3-1.5A5.64,5.64,0,0,1,186.8,149.58Z" style="fill: rgb(38, 50, 56); transform-origin: 171.12px 154.995px;" id="elz3aybnpwdh" class="animable"></path></g><defs>     <filter id="active" height="200%">         <feMorphology in="SourceAlpha" result="DILATED" operator="dilate" radius="2"></feMorphology>                <feFlood flood-color="#32DFEC" flood-opacity="1" result="PINK"></feFlood>        <feComposite in="PINK" in2="DILATED" operator="in" result="OUTLINE"></feComposite>        <feMerge>            <feMergeNode in="OUTLINE"></feMergeNode>            <feMergeNode in="SourceGraphic"></feMergeNode>        </feMerge>    </filter>    <filter id="hover" height="200%">        <feMorphology in="SourceAlpha" result="DILATED" operator="dilate" radius="2"></feMorphology>                <feFlood flood-color="#ff0000" flood-opacity="0.5" result="PINK"></feFlood>        <feComposite in="PINK" in2="DILATED" operator="in" result="OUTLINE"></feComposite>        <feMerge>            <feMergeNode in="OUTLINE"></feMergeNode>            <feMergeNode in="SourceGraphic"></feMergeNode>        </feMerge>            <feColorMatrix type="matrix" values="0   0   0   0   0                0   1   0   0   0                0   0   0   0   0                0   0   0   1   0 "></feColorMatrix>    </filter></defs></svg>